<?xml version="1.0" standalone="no"?>
<!DOCTYPE svg PUBLIC "-//W3C//DTD SVG 20010904//EN"
 "http://www.w3.org/TR/2001/REC-SVG-20010904/DTD/svg10.dtd">
<svg version="1.0" xmlns="http://www.w3.org/2000/svg"
 width="250.000000pt" height="250.000000pt" viewBox="0 0 250.000000 250.000000"
 preserveAspectRatio="xMidYMid meet">
<metadata>
Created by potrace 1.14, written by Peter Selinger 2001-2017
</metadata>
<g transform="translate(0.000000,250.000000) scale(0.100000,-0.100000)"
fill="#000000" stroke="none">
<path d="M1751 1383 c-16 -19 -20 -34 -15 -58 6 -31 -17 -95 -34 -95 -15 0
-52 80 -52 113 0 40 -20 61 -49 52 -23 -7 -35 -36 -26 -65 9 -29 -16 -100 -42
-117 -28 -19 -30 -54 -3 -70 15 -10 22 -10 35 4 9 9 14 25 12 35 -6 20 28 108
41 108 10 0 52 -67 52 -83 0 -8 8 -21 18 -30 14 -13 21 -14 30 -5 7 7 12 18
12 26 0 22 40 82 54 82 15 0 39 -55 52 -115 7 -28 17 -44 37 -55 27 -14 29
-14 53 13 13 15 24 37 24 47 0 24 -21 70 -32 70 -4 0 -26 16 -48 36 -31 29
-40 43 -40 70 0 23 -7 38 -22 48 -30 21 -33 20 -57 -11z m139 -153 c0 -5 -5
-10 -11 -10 -5 0 -7 5 -4 10 3 6 8 10 11 10 2 0 4 -4 4 -10z"/>
<path d="M1080 1337 c-64 -32 -67 -142 -6 -183 33 -21 70 -12 93 22 16 25 16
27 -2 40 -17 13 -21 12 -36 -8 -15 -19 -19 -20 -33 -9 -20 17 -21 61 -2 86 14
19 15 19 44 -12 26 -26 40 -32 94 -38 l63 -7 -4 -44 c-3 -42 -2 -44 24 -44 26
0 27 2 23 45 -2 26 1 45 7 45 6 0 9 -19 7 -45 l-4 -45 67 0 66 0 -3 28 c-3 23
-8 27 -38 30 -56 6 -60 41 -4 42 12 0 27 7 34 15 11 13 6 14 -34 9 -40 -6 -46
-5 -40 10 4 11 18 16 45 16 37 0 39 2 39 30 l0 30 -65 0 -65 0 0 -45 c0 -25
-3 -45 -7 -45 -5 0 -8 19 -8 42 0 37 -3 43 -22 46 -21 3 -23 -1 -23 -42 0 -42
-2 -46 -25 -46 -23 0 -25 4 -25 45 0 38 -3 45 -20 45 -17 0 -20 -7 -20 -38 0
-44 -6 -53 -26 -45 -10 4 -12 9 -4 18 7 9 5 18 -7 33 -24 27 -53 34 -83 19z"/>
<path d="M581 1263 c-12 -43 -24 -86 -27 -95 -4 -14 1 -18 19 -18 14 0 27 7
31 15 3 8 15 15 26 15 11 0 23 -7 26 -15 5 -12 54 -23 54 -12 0 3 -38 141 -46
170 -3 11 -15 17 -33 17 -26 0 -29 -5 -50 -77z m59 -23 c0 -11 -4 -20 -10 -20
-5 0 -10 9 -10 20 0 11 5 20 10 20 6 0 10 -9 10 -20z"/>
<path d="M720 1245 c0 -95 0 -95 25 -95 23 0 25 4 25 48 l1 47 25 -47 c19 -38
30 -48 49 -48 25 0 25 1 25 95 0 95 0 95 -25 95 -23 0 -25 -4 -25 -47 l-1 -48
-25 48 c-19 37 -30 47 -49 47 -25 0 -25 -1 -25 -95z"/>
<path d="M880 1333 c0 -5 11 -28 25 -52 16 -28 25 -58 25 -87 0 -40 2 -44 25
-44 22 0 25 4 25 35 0 20 14 62 30 95 l30 60 -28 0 c-22 0 -32 -7 -41 -27
l-13 -28 -14 28 c-10 18 -23 27 -39 27 -14 0 -25 -3 -25 -7z"/>
<path d="M1200 1186 c0 -40 3 -46 21 -46 18 0 20 5 17 42 -2 31 -8 44 -20 46
-15 3 -18 -4 -18 -42z"/>
</g>
</svg>
